<svg width="115" height="118" viewBox="0 0 115 118" fill="none" xmlns="http://www.w3.org/2000/svg">
<path d="M31.6201 88.9497V106.66C31.6201 112.9 36.6801 117.95 42.9101 117.95H103.66C109.9 117.95 114.95 112.89 114.95 106.66V45.1797H83.3301V77.6597C83.3301 83.8997 78.2701 88.9497 72.0401 88.9497H31.6201Z" fill="#FFA015"/>
<path d="M83.33 27.47V45.17L67.16 29.01H59.69L63.11 45.17H31.62V58.05H47.21V61.47H31.62V72.64H47.21V76.08H31.62V88.95H0V27.47C0 21.23 5.05 16.17 11.29 16.17H16.01L32.18 0H39.66L36.23 16.17H72.04C78.27 16.17 83.33 21.23 83.33 27.47Z" fill="#221714"/>
</svg>
