<svg width="396" height="118" viewBox="0 0 396 118" fill="none" xmlns="http://www.w3.org/2000/svg">
<g clip-path="url(#clip0_116_11297)">
<path d="M31.6201 88.9501V106.66C31.6201 112.9 36.6801 117.95 42.9101 117.95H103.66C109.9 117.95 114.95 112.89 114.95 106.66V45.1801H83.3301V77.6601C83.3301 83.9001 78.2701 88.9501 72.0401 88.9501H31.6201Z" fill="#FFA015"/>
<path d="M83.33 27.47V45.17L67.16 29.01H59.69L63.11 45.17H31.62V58.05H47.21V61.47H31.62V72.64H47.21V76.08H31.62V88.95H0V27.47C0 21.23 5.05 16.17 11.29 16.17H16.01L32.18 0H39.66L36.23 16.17H72.04C78.27 16.17 83.33 21.23 83.33 27.47Z" fill="#221714"/>
<path d="M143.83 75.04H166.42V88.81H177.15V75.04H199.88V67.65H143.83V75.04Z" fill="black"/>
<path d="M165.93 45.24L148.35 57.31L153.29 64.24L171.72 51.59L190 64.23L195.32 57.33L177.77 45.24C177.38 44.98 177.21 44.68 177.21 44.22V40.71H193.61V33.32H177.34V26.65H166.28V33.32H149.75V40.71H166.48V44.22C166.48 44.67 166.31 44.98 165.91 45.25L165.93 45.24Z" fill="black"/>
<path d="M221.2 46.81L208.6 60.45L215.09 66.47L227.45 52.85L239.08 65.67L245.56 59.58L233.78 46.76C232.99 45.85 232.68 45.06 232.68 43.95V41.85H244.28V34.46H232.95V27.79H221.9V34.46H210.23V41.85H222.3V44.02C222.3 45.13 221.99 45.92 221.22 46.82L221.2 46.81Z" fill="black"/>
<path d="M240.75 52.44H250.75V80.43H228.07V70.06H217.35V82.79C217.35 86.2 219.3 88.15 222.71 88.15H261.47V30.38H250.75V44.25H240.75V52.44Z" fill="black"/>
<path d="M318.48 54.2501H313.87V30.3201H304.48V71.7701H285.33V38.3701H301.14V31.6501H275.41V73.1301C275.41 76.5401 277.36 78.4901 280.77 78.4901H304.48V88.1401H313.87V62.3001H318.48V88.1401H328.4V30.3101H318.48V54.2401V54.2501Z" fill="black"/>
<path d="M215.91 105.88C216.69 105.6 217.37 104.82 217.37 103.62C217.37 102.2 216.36 101.01 214.1 101.01H210V111.41H214.2C216.22 111.41 217.69 110.28 217.69 108.35C217.69 106.85 216.62 106.12 215.9 105.88H215.91ZM211.52 102.26H214.02C215.18 102.26 215.82 102.87 215.82 103.76C215.82 104.72 215.26 105.29 213.84 105.29H211.52V102.26ZM213.98 110.15H211.51V106.54H213.76C215.41 106.54 216.1 107.26 216.1 108.33C216.1 109.56 215.26 110.15 213.97 110.15H213.98Z" fill="black"/>
<path d="M221.92 103.6C219.58 103.6 218.42 105.39 218.42 107.68C218.42 109.65 219.42 111.58 221.84 111.58C223.99 111.58 224.81 110.23 225.1 109.26H223.62C223.38 109.8 223.02 110.37 221.88 110.37C220.63 110.37 219.91 109.3 219.9 107.87H225.21C225.23 107.66 225.23 107.47 225.23 107.24C225.23 105.56 224.41 103.6 221.92 103.6ZM219.95 106.87C220.07 105.62 220.63 104.73 221.9 104.73C223.17 104.73 223.73 105.69 223.74 106.87H219.95Z" fill="black"/>
<path d="M229.15 106.78C227.78 106.45 227.49 106.19 227.49 105.66C227.49 105.19 227.79 104.72 228.79 104.72C229.93 104.72 230.26 105.38 230.36 105.83H231.78C231.69 104.77 230.89 103.61 228.85 103.61C226.81 103.61 226.03 104.7 226.03 105.78C226.03 106.86 226.48 107.51 228.71 108.05C230.09 108.39 230.44 108.69 230.44 109.36C230.44 110.03 230.03 110.45 228.98 110.45C227.99 110.45 227.4 109.99 227.19 109.2H225.73C225.92 110.56 226.88 111.58 228.92 111.58C230.96 111.58 231.94 110.57 231.94 109.25C231.94 108.12 231.5 107.33 229.14 106.77L229.15 106.78Z" fill="black"/>
<path d="M234.75 101.57H233.28V103.78H231.99V104.95H233.28V109.57C233.28 110.85 233.8 111.5 235.04 111.5C235.41 111.5 235.89 111.48 236.23 111.36V110.28C236.03 110.33 235.77 110.34 235.6 110.34C234.92 110.34 234.74 109.99 234.74 109.28V104.95H236.39V103.78H234.74V101.57H234.75Z" fill="black"/>
<path d="M241.85 105.29C241.85 104.61 241.83 103.98 241.81 103.78H240.37C240.37 104.23 240.39 104.84 240.39 105.85V111.4H241.86V107.77C241.86 105.81 242.85 105.07 244.4 105.04V103.59C243.13 103.62 242.24 104.28 241.86 105.28L241.85 105.29Z" fill="black"/>
<path d="M248.03 103.6C245.69 103.6 244.53 105.39 244.53 107.68C244.53 109.65 245.53 111.58 247.95 111.58C250.1 111.58 250.92 110.23 251.21 109.26H249.73C249.49 109.8 249.13 110.37 247.99 110.37C246.74 110.37 246.02 109.3 246.01 107.87H251.32C251.34 107.66 251.34 107.47 251.34 107.24C251.34 105.56 250.52 103.6 248.03 103.6ZM246.06 106.87C246.18 105.62 246.74 104.73 248.01 104.73C249.28 104.73 249.84 105.69 249.85 106.87H246.06Z" fill="black"/>
<path d="M255.47 104.81C256.52 104.81 256.98 105.44 257.16 106.18H258.61C258.52 105.22 257.77 103.6 255.5 103.6C253.23 103.6 251.97 105.46 251.97 107.63C251.97 110.04 253.25 111.58 255.41 111.58C257.41 111.58 258.3 110.35 258.61 109.04H257.15C256.86 109.88 256.34 110.38 255.43 110.38C254.18 110.38 253.48 109.3 253.48 107.58C253.48 105.86 254.2 104.8 255.47 104.8V104.81Z" fill="black"/>
<path d="M262.74 103.6C260.42 103.6 259.1 105.33 259.1 107.6C259.1 109.87 260.43 111.58 262.65 111.58C264.99 111.58 266.28 109.79 266.28 107.57C266.28 105.18 264.88 103.6 262.74 103.6ZM262.7 110.37C261.4 110.37 260.6 109.22 260.6 107.59C260.6 105.88 261.33 104.81 262.66 104.81C263.99 104.81 264.76 105.91 264.76 107.6C264.76 109.29 264.02 110.38 262.69 110.38L262.7 110.37Z" fill="black"/>
<path d="M275.48 103.6C274.19 103.6 273.48 104.22 273.07 104.93C272.78 104.16 272.07 103.6 270.99 103.6C269.8 103.6 269.15 104.24 268.79 104.9C268.79 104.53 268.75 104 268.73 103.78H267.32C267.34 104.4 267.34 105.09 267.34 105.74V111.4H268.8V107.17C268.8 105.75 269.35 104.85 270.51 104.85C271.67 104.85 271.91 105.68 271.91 106.62V111.4H273.35V107.03C273.35 105.71 273.85 104.85 275.02 104.85C276.19 104.85 276.45 105.73 276.45 106.58V111.41H277.89V106.4C277.89 104.35 276.74 103.61 275.49 103.61L275.48 103.6Z" fill="black"/>
<path d="M287.63 103.6C286.34 103.6 285.63 104.22 285.22 104.93C284.93 104.16 284.22 103.6 283.14 103.6C281.95 103.6 281.3 104.24 280.94 104.9C280.94 104.53 280.9 104 280.88 103.78H279.47C279.49 104.4 279.49 105.09 279.49 105.74V111.4H280.95V107.17C280.95 105.75 281.5 104.85 282.66 104.85C283.82 104.85 284.06 105.68 284.06 106.62V111.4H285.5V107.03C285.5 105.71 286 104.85 287.17 104.85C288.34 104.85 288.6 105.73 288.6 106.58V111.41H290.04V106.4C290.04 104.35 288.89 103.61 287.64 103.61L287.63 103.6Z" fill="black"/>
<path d="M294.6 103.6C292.26 103.6 291.1 105.39 291.1 107.68C291.1 109.65 292.1 111.58 294.52 111.58C296.67 111.58 297.49 110.23 297.78 109.26H296.3C296.06 109.8 295.7 110.37 294.56 110.37C293.31 110.37 292.59 109.3 292.58 107.87H297.88C297.9 107.66 297.9 107.47 297.9 107.24C297.9 105.56 297.08 103.6 294.59 103.6H294.6ZM292.63 106.87C292.75 105.62 293.31 104.73 294.58 104.73C295.85 104.73 296.41 105.69 296.42 106.87H292.62H292.63Z" fill="black"/>
<path d="M302.81 103.6C301.36 103.6 300.74 104.36 300.45 104.98C300.45 104.75 300.43 104 300.39 103.78H298.96C298.98 104.37 298.98 105.04 298.98 105.7V111.4H300.45V107.32C300.45 105.82 301.02 104.85 302.35 104.85C303.47 104.85 303.89 105.6 303.89 106.69V111.4H305.36V106.51C305.36 104.51 304.27 103.6 302.82 103.6H302.81Z" fill="black"/>
<path d="M313.39 100.42H311.92V104.52C311.72 104.11 311.12 103.6 309.82 103.6C307.7 103.6 306.4 105.32 306.4 107.67C306.4 110.02 307.61 111.58 309.56 111.58C310.79 111.58 311.54 111.13 311.91 110.37C311.91 110.64 311.94 111.19 311.98 111.4H313.39C313.37 110.67 313.37 109.97 313.37 109.26V100.42H313.39ZM309.91 110.35C308.75 110.35 307.93 109.39 307.93 107.62C307.93 105.85 308.71 104.82 310.01 104.82C311.66 104.82 311.98 105.87 311.98 107.49C311.98 109.11 311.63 110.34 309.91 110.34V110.35Z" fill="black"/>
<path d="M320.67 106.12C320.67 104.37 319.62 103.61 317.73 103.6C315.51 103.6 314.83 104.78 314.73 105.89H316.15C316.28 105.3 316.49 104.72 317.69 104.72C319.03 104.72 319.24 105.49 319.24 106.13V106.74H317.98C315.72 106.74 314.37 107.52 314.37 109.23C314.37 110.39 315.14 111.57 316.94 111.57C318.39 111.57 318.98 110.93 319.25 110.44C319.27 110.85 319.31 111.22 319.37 111.39H320.77C320.73 111.18 320.67 110.37 320.67 109.67V106.11V106.12ZM319.24 107.97C319.24 109.28 319.01 110.46 317.27 110.46C316.37 110.46 315.86 109.9 315.86 109.16C315.86 108.15 316.61 107.74 318.08 107.74H319.24V107.98V107.97Z" fill="black"/>
<path d="M323.98 101.57H322.51V103.78H321.22V104.95H322.51V109.57C322.51 110.85 323.03 111.5 324.27 111.5C324.64 111.5 325.12 111.48 325.46 111.36V110.28C325.26 110.33 325 110.34 324.83 110.34C324.15 110.34 323.97 109.99 323.97 109.28V104.95H325.62V103.78H323.97V101.57H323.98Z" fill="black"/>
<path d="M327.85 100.42H326.38V102.11H327.85V100.42Z" fill="black"/>
<path d="M327.85 103.78H326.38V111.4H327.85V103.78Z" fill="black"/>
<path d="M332.55 103.6C330.23 103.6 328.91 105.33 328.91 107.6C328.91 109.87 330.24 111.58 332.46 111.58C334.8 111.58 336.09 109.79 336.09 107.57C336.09 105.18 334.69 103.6 332.55 103.6ZM332.51 110.37C331.21 110.37 330.41 109.22 330.41 107.59C330.41 105.88 331.14 104.81 332.47 104.81C333.8 104.81 334.57 105.91 334.57 107.6C334.57 109.29 333.83 110.38 332.5 110.38L332.51 110.37Z" fill="black"/>
<path d="M340.98 103.6C339.53 103.6 338.91 104.36 338.62 104.98C338.62 104.75 338.6 104 338.56 103.78H337.13C337.14 104.37 337.14 105.04 337.14 105.7V111.4H338.61V107.32C338.61 105.82 339.18 104.85 340.51 104.85C341.63 104.85 342.05 105.6 342.05 106.69V111.4H343.52V106.51C343.52 104.51 342.43 103.6 340.98 103.6Z" fill="black"/>
<path d="M351.46 103.78H349.97V103.01C349.97 101.95 350.25 101.53 351.01 101.53C351.21 101.53 351.46 101.55 351.63 101.59V100.37C351.44 100.31 351.05 100.27 350.76 100.27C349.08 100.27 348.5 101.48 348.5 102.91V103.78H347.3V104.95H348.5V111.4H349.97V104.95H351.46V103.78Z" fill="black"/>
<path d="M355.06 103.6C352.74 103.6 351.42 105.33 351.42 107.6C351.42 109.87 352.75 111.58 354.97 111.58C357.32 111.58 358.6 109.79 358.6 107.57C358.6 105.18 357.2 103.6 355.06 103.6ZM355.02 110.37C353.72 110.37 352.92 109.22 352.92 107.59C352.92 105.88 353.65 104.81 354.99 104.81C356.33 104.81 357.09 105.91 357.09 107.6C357.09 109.29 356.35 110.38 355.02 110.38V110.37Z" fill="black"/>
<path d="M361.12 105.29C361.12 104.61 361.1 103.98 361.08 103.78H359.64C359.64 104.23 359.66 104.84 359.66 105.85V111.4H361.13V107.77C361.13 105.81 362.12 105.07 363.67 105.04V103.59C362.4 103.62 361.51 104.28 361.13 105.28L361.12 105.29Z" fill="black"/>
<path d="M369.43 101.57H367.96V103.78H366.67V104.95H367.96V109.57C367.96 110.85 368.48 111.5 369.72 111.5C370.1 111.5 370.57 111.48 370.91 111.36V110.28C370.71 110.33 370.45 110.34 370.28 110.34C369.6 110.34 369.42 109.99 369.42 109.28V104.95H371.06V103.78H369.42V101.57H369.43Z" fill="black"/>
<path d="M373.27 105.29C373.27 104.61 373.25 103.98 373.23 103.78H371.79C371.79 104.23 371.81 104.84 371.81 105.85V111.4H373.28V107.77C373.28 105.81 374.27 105.07 375.82 105.04V103.59C374.55 103.62 373.66 104.28 373.28 105.28L373.27 105.29Z" fill="black"/>
<path d="M382.73 103.78H381.26V107.77C381.26 109.6 380.75 110.32 379.43 110.32C378.23 110.32 377.93 109.44 377.93 108.47V103.78H376.47V108.78C376.47 110.88 377.66 111.58 378.99 111.58C380.15 111.58 380.87 111.14 381.26 110.31C381.26 110.75 381.28 111.2 381.31 111.4H382.74C382.74 110.9 382.72 109.92 382.72 109.18V103.78H382.73Z" fill="black"/>
<path d="M386.99 106.78C385.62 106.45 385.32 106.19 385.32 105.66C385.32 105.19 385.62 104.72 386.62 104.72C387.76 104.72 388.09 105.38 388.2 105.83H389.61C389.52 104.77 388.72 103.61 386.68 103.61C384.64 103.61 383.86 104.7 383.86 105.78C383.86 106.86 384.31 107.51 386.54 108.05C387.92 108.39 388.27 108.69 388.27 109.36C388.27 110.03 387.86 110.45 386.81 110.45C385.82 110.45 385.23 109.99 385.02 109.2H383.56C383.75 110.56 384.71 111.58 386.75 111.58C388.79 111.58 389.77 110.57 389.77 109.25C389.77 108.12 389.33 107.33 386.97 106.77L386.99 106.78Z" fill="black"/>
<path d="M392.59 101.57H391.12V103.78H389.83V104.95H391.12V109.57C391.12 110.85 391.64 111.5 392.88 111.5C393.26 111.5 393.73 111.48 394.07 111.36V110.28C393.87 110.33 393.61 110.34 393.44 110.34C392.76 110.34 392.58 109.99 392.58 109.28V104.95H394.22V103.78H392.58V101.57H392.59Z" fill="black"/>
<path d="M391.51 66.74V80.32H350.21V82.34H392.77V88.15H342.38V74.51H383.74V72.55H342.38V66.74H362.97V64.21H338.28V57.96H395.49V64.21H370.8V66.74H391.51ZM390.76 43.5H373.52C374.57 44.43 375.86 45.25 377.37 45.96C378.89 46.68 380.51 47.3 382.23 47.82C383.96 48.35 385.74 48.77 387.6 49.08C389.45 49.4 391.24 49.62 392.97 49.74L390.38 55.86C388.23 55.69 386.03 55.41 383.78 55.01C381.53 54.61 379.35 54.05 377.24 53.34C375.13 52.62 373.19 51.74 371.4 50.69C369.61 49.64 368.11 48.38 366.88 46.9C365.66 48.37 364.15 49.64 362.37 50.69C360.58 51.74 358.64 52.63 356.56 53.34C354.48 54.06 352.31 54.61 350.06 55.01C347.81 55.41 345.61 55.69 343.46 55.86L340.87 49.74C342.6 49.61 344.38 49.39 346.24 49.08C348.09 48.76 349.88 48.35 351.61 47.85C353.34 47.35 354.95 46.74 356.44 46.02C357.93 45.3 359.21 44.46 360.26 43.49H343.15V37.37H390.76V43.49V43.5ZM378.7 35.1H355.21V29.16H378.7V35.1Z" fill="black"/>
</g>
<defs>
<clipPath id="clip0_116_11297">
<rect width="395.49" height="117.95" fill="white"/>
</clipPath>
</defs>
</svg>
